<mxfile host="app.diagrams.net" modified="2022-03-23T05:05:14.645Z" agent="5.0 (Windows)" etag="G4rPbR6x9EU7YvwhOlfT" version="17.1.3" type="github">
  <diagram id="C5RBs43oDa-KdzZeNtuy" name="Page-1">
    <mxGraphModel dx="2324" dy="821" grid="1" gridSize="10" guides="1" tooltips="1" connect="1" arrows="1" fold="1" page="1" pageScale="1" pageWidth="827" pageHeight="1169" math="0" shadow="0">
      <root>
        <mxCell id="WIyWlLk6GJQsqaUBKTNV-0" />
        <mxCell id="WIyWlLk6GJQsqaUBKTNV-1" parent="WIyWlLk6GJQsqaUBKTNV-0" />
        <mxCell id="4k0nX1ey7aPG4yUnOb5Q-0" value="&lt;b&gt;&lt;font color=&quot;#4D9900&quot;&gt;Streams Enabled&lt;/font&gt;&lt;/b&gt;" style="text;html=1;align=center;verticalAlign=middle;resizable=0;points=[];autosize=1;strokeColor=none;fillColor=none;" parent="WIyWlLk6GJQsqaUBKTNV-1" vertex="1">
          <mxGeometry x="342" y="65" width="110" height="20" as="geometry" />
        </mxCell>
        <mxCell id="4k0nX1ey7aPG4yUnOb5Q-1" value="Jobs Table" style="swimlane;fontStyle=0;childLayout=stackLayout;horizontal=1;startSize=30;horizontalStack=0;resizeParent=1;resizeParentMax=0;resizeLast=0;collapsible=1;marginBottom=0;" parent="WIyWlLk6GJQsqaUBKTNV-1" vertex="1">
          <mxGeometry x="327" y="85" width="140" height="210" as="geometry" />
        </mxCell>
        <mxCell id="4k0nX1ey7aPG4yUnOb5Q-2" value="jobId - PK" style="text;strokeColor=none;fillColor=none;align=left;verticalAlign=middle;spacingLeft=4;spacingRight=4;overflow=hidden;points=[[0,0.5],[1,0.5]];portConstraint=eastwest;rotatable=0;" parent="4k0nX1ey7aPG4yUnOb5Q-1" vertex="1">
          <mxGeometry y="30" width="140" height="30" as="geometry" />
        </mxCell>
        <mxCell id="4k0nX1ey7aPG4yUnOb5Q-15" value="jobType - SK" style="text;strokeColor=none;fillColor=none;align=left;verticalAlign=middle;spacingLeft=4;spacingRight=4;overflow=hidden;points=[[0,0.5],[1,0.5]];portConstraint=eastwest;rotatable=0;" parent="4k0nX1ey7aPG4yUnOb5Q-1" vertex="1">
          <mxGeometry y="60" width="140" height="30" as="geometry" />
        </mxCell>
        <mxCell id="4k0nX1ey7aPG4yUnOb5Q-16" value="jobStatus" style="text;strokeColor=none;fillColor=none;align=left;verticalAlign=middle;spacingLeft=4;spacingRight=4;overflow=hidden;points=[[0,0.5],[1,0.5]];portConstraint=eastwest;rotatable=0;fontColor=#4D9900;fontStyle=1" parent="4k0nX1ey7aPG4yUnOb5Q-1" vertex="1">
          <mxGeometry y="90" width="140" height="30" as="geometry" />
        </mxCell>
        <mxCell id="4k0nX1ey7aPG4yUnOb5Q-31" value="triggerLambda" style="text;strokeColor=none;fillColor=none;align=left;verticalAlign=middle;spacingLeft=4;spacingRight=4;overflow=hidden;points=[[0,0.5],[1,0.5]];portConstraint=eastwest;rotatable=0;" parent="4k0nX1ey7aPG4yUnOb5Q-1" vertex="1">
          <mxGeometry y="120" width="140" height="30" as="geometry" />
        </mxCell>
        <mxCell id="4k0nX1ey7aPG4yUnOb5Q-69" value="lastTriggeredBy" style="text;strokeColor=#6c8ebf;fillColor=#dae8fc;align=left;verticalAlign=middle;spacingLeft=4;spacingRight=4;overflow=hidden;points=[[0,0.5],[1,0.5]];portConstraint=eastwest;rotatable=0;" parent="4k0nX1ey7aPG4yUnOb5Q-1" vertex="1">
          <mxGeometry y="150" width="140" height="30" as="geometry" />
        </mxCell>
        <mxCell id="4k0nX1ey7aPG4yUnOb5Q-27" value="isDeleted" style="text;strokeColor=none;fillColor=none;align=left;verticalAlign=middle;spacingLeft=4;spacingRight=4;overflow=hidden;points=[[0,0.5],[1,0.5]];portConstraint=eastwest;rotatable=0;" parent="4k0nX1ey7aPG4yUnOb5Q-1" vertex="1">
          <mxGeometry y="180" width="140" height="30" as="geometry" />
        </mxCell>
        <mxCell id="4k0nX1ey7aPG4yUnOb5Q-7" value="DynamoDB" style="text;html=1;align=center;verticalAlign=middle;resizable=0;points=[];autosize=1;strokeColor=none;fillColor=none;fontSize=18;fontStyle=1" parent="WIyWlLk6GJQsqaUBKTNV-1" vertex="1">
          <mxGeometry x="342" y="30" width="110" height="30" as="geometry" />
        </mxCell>
        <mxCell id="4k0nX1ey7aPG4yUnOb5Q-8" value="&lt;h1 class=&quot;topictitle&quot; id=&quot;Streams&quot; style=&quot;font-size: 18px;&quot;&gt;DynamoDB Streams&lt;/h1&gt;" style="text;html=1;align=center;verticalAlign=middle;resizable=0;points=[];autosize=1;strokeColor=default;fillColor=none;fontSize=18;" parent="WIyWlLk6GJQsqaUBKTNV-1" vertex="1">
          <mxGeometry x="517" y="360" width="190" height="50" as="geometry" />
        </mxCell>
        <mxCell id="4k0nX1ey7aPG4yUnOb5Q-19" value="" style="edgeStyle=orthogonalEdgeStyle;rounded=0;orthogonalLoop=1;jettySize=auto;html=1;fontSize=12;entryX=0;entryY=0.5;entryDx=0;entryDy=0;curved=1;" parent="WIyWlLk6GJQsqaUBKTNV-1" source="4k0nX1ey7aPG4yUnOb5Q-11" target="4k0nX1ey7aPG4yUnOb5Q-2" edge="1">
          <mxGeometry relative="1" as="geometry">
            <mxPoint x="320" y="125" as="targetPoint" />
          </mxGeometry>
        </mxCell>
        <mxCell id="4k0nX1ey7aPG4yUnOb5Q-11" value="createJob Lambda" style="rounded=1;whiteSpace=wrap;html=1;fontSize=12;fillColor=#fff2cc;strokeColor=#d6b656;" parent="WIyWlLk6GJQsqaUBKTNV-1" vertex="1">
          <mxGeometry x="120" y="55" width="120" height="60" as="geometry" />
        </mxCell>
        <mxCell id="4k0nX1ey7aPG4yUnOb5Q-12" value="&lt;div&gt;Job Id -&amp;nbsp; can be a unique Job Name.&lt;/div&gt;&lt;div&gt;&amp;nbsp;Not a UUID&lt;/div&gt;&lt;div&gt;Ex: INVITE-EVENT-PARTICIPANT&lt;br&gt;&lt;/div&gt;" style="text;html=1;align=center;verticalAlign=middle;resizable=0;points=[];autosize=1;strokeColor=none;fillColor=none;fontSize=12;" parent="WIyWlLk6GJQsqaUBKTNV-1" vertex="1">
          <mxGeometry x="502" y="45" width="210" height="50" as="geometry" />
        </mxCell>
        <mxCell id="4k0nX1ey7aPG4yUnOb5Q-13" value="&lt;div&gt;jobStatus-&amp;nbsp; completed | pending | idle&lt;br&gt;&lt;/div&gt;&amp;nbsp;| failed" style="text;html=1;align=center;verticalAlign=middle;resizable=0;points=[];autosize=1;strokeColor=none;fillColor=none;fontSize=12;" parent="WIyWlLk6GJQsqaUBKTNV-1" vertex="1">
          <mxGeometry x="497" y="165" width="220" height="30" as="geometry" />
        </mxCell>
        <mxCell id="4k0nX1ey7aPG4yUnOb5Q-17" value="&lt;div&gt;jobType -&amp;nbsp; a constatnt type for scalability later.&lt;/div&gt;&lt;div&gt;ex: ONBOARDING_EVENT &lt;br&gt;&lt;/div&gt;" style="text;html=1;align=center;verticalAlign=middle;resizable=0;points=[];autosize=1;strokeColor=none;fillColor=none;fontSize=12;" parent="WIyWlLk6GJQsqaUBKTNV-1" vertex="1">
          <mxGeometry x="487" y="110" width="260" height="30" as="geometry" />
        </mxCell>
        <mxCell id="4k0nX1ey7aPG4yUnOb5Q-26" value="" style="endArrow=classic;html=1;rounded=0;fontSize=12;exitX=0.25;exitY=1;exitDx=0;exitDy=0;entryX=0.579;entryY=0;entryDx=0;entryDy=0;entryPerimeter=0;edgeStyle=orthogonalEdgeStyle;" parent="WIyWlLk6GJQsqaUBKTNV-1" source="4k0nX1ey7aPG4yUnOb5Q-1" target="4k0nX1ey7aPG4yUnOb5Q-8" edge="1">
          <mxGeometry width="50" height="50" relative="1" as="geometry">
            <mxPoint x="397" y="340" as="sourcePoint" />
            <mxPoint x="447" y="290" as="targetPoint" />
            <Array as="points">
              <mxPoint x="400" y="295" />
              <mxPoint x="400" y="328" />
              <mxPoint x="627" y="328" />
            </Array>
          </mxGeometry>
        </mxCell>
        <mxCell id="4k0nX1ey7aPG4yUnOb5Q-30" value="" style="endArrow=classic;html=1;rounded=0;fontSize=12;" parent="WIyWlLk6GJQsqaUBKTNV-1" source="4k0nX1ey7aPG4yUnOb5Q-8" target="mxMdfdnsyDccVtuDXAn--1" edge="1">
          <mxGeometry width="50" height="50" relative="1" as="geometry">
            <mxPoint x="327" y="525" as="sourcePoint" />
            <mxPoint x="377" y="475" as="targetPoint" />
          </mxGeometry>
        </mxCell>
        <mxCell id="4k0nX1ey7aPG4yUnOb5Q-32" value="&lt;div&gt;triggerLambda-&amp;nbsp; name of the lambdaToExecute&lt;br&gt;&lt;/div&gt;" style="text;html=1;align=center;verticalAlign=middle;resizable=0;points=[];autosize=1;strokeColor=none;fillColor=none;fontSize=12;" parent="WIyWlLk6GJQsqaUBKTNV-1" vertex="1">
          <mxGeometry x="472" y="210" width="270" height="20" as="geometry" />
        </mxCell>
        <mxCell id="mxMdfdnsyDccVtuDXAn--18" style="edgeStyle=orthogonalEdgeStyle;curved=1;rounded=0;orthogonalLoop=1;jettySize=auto;html=1;exitX=1;exitY=0.5;exitDx=0;exitDy=0;entryX=-0.011;entryY=0.221;entryDx=0;entryDy=0;entryPerimeter=0;fontSize=12;" edge="1" parent="WIyWlLk6GJQsqaUBKTNV-1" source="4k0nX1ey7aPG4yUnOb5Q-42" target="4k0nX1ey7aPG4yUnOb5Q-31">
          <mxGeometry relative="1" as="geometry">
            <Array as="points">
              <mxPoint x="115" y="212" />
            </Array>
          </mxGeometry>
        </mxCell>
        <mxCell id="mxMdfdnsyDccVtuDXAn--20" value="yes" style="edgeLabel;html=1;align=center;verticalAlign=middle;resizable=0;points=[];fontSize=12;" vertex="1" connectable="0" parent="mxMdfdnsyDccVtuDXAn--18">
          <mxGeometry x="-0.7371" y="2" relative="1" as="geometry">
            <mxPoint as="offset" />
          </mxGeometry>
        </mxCell>
        <mxCell id="4k0nX1ey7aPG4yUnOb5Q-42" value="&lt;div&gt;Lambda&lt;/div&gt;&lt;div&gt;Completed&lt;br&gt;&lt;/div&gt;" style="rhombus;whiteSpace=wrap;html=1;fontSize=12;" parent="WIyWlLk6GJQsqaUBKTNV-1" vertex="1">
          <mxGeometry x="13" y="220" width="80" height="80" as="geometry" />
        </mxCell>
        <mxCell id="4k0nX1ey7aPG4yUnOb5Q-51" value="" style="edgeStyle=orthogonalEdgeStyle;curved=1;rounded=0;orthogonalLoop=1;jettySize=auto;html=1;fontSize=12;exitX=0.5;exitY=1;exitDx=0;exitDy=0;entryX=0;entryY=0.5;entryDx=0;entryDy=0;" parent="WIyWlLk6GJQsqaUBKTNV-1" source="4k0nX1ey7aPG4yUnOb5Q-46" target="4k0nX1ey7aPG4yUnOb5Q-15" edge="1">
          <mxGeometry relative="1" as="geometry">
            <mxPoint x="330" y="170" as="targetPoint" />
            <Array as="points">
              <mxPoint x="307" y="720" />
              <mxPoint x="-170" y="720" />
              <mxPoint x="-170" y="160" />
            </Array>
          </mxGeometry>
        </mxCell>
        <mxCell id="4k0nX1ey7aPG4yUnOb5Q-52" value="No" style="edgeLabel;html=1;align=center;verticalAlign=middle;resizable=0;points=[];fontSize=12;" parent="4k0nX1ey7aPG4yUnOb5Q-51" vertex="1" connectable="0">
          <mxGeometry x="-0.9172" y="2" relative="1" as="geometry">
            <mxPoint x="-44" as="offset" />
          </mxGeometry>
        </mxCell>
        <mxCell id="4k0nX1ey7aPG4yUnOb5Q-57" value="Update jobStatus= &lt;b&gt;&lt;font color=&quot;#990000&quot;&gt;failed&lt;/font&gt;&lt;/b&gt;" style="edgeLabel;html=1;align=center;verticalAlign=middle;resizable=0;points=[];fontSize=12;" parent="4k0nX1ey7aPG4yUnOb5Q-51" vertex="1" connectable="0">
          <mxGeometry x="-0.0242" y="-1" relative="1" as="geometry">
            <mxPoint x="19" y="-164" as="offset" />
          </mxGeometry>
        </mxCell>
        <mxCell id="mxMdfdnsyDccVtuDXAn--16" style="edgeStyle=orthogonalEdgeStyle;rounded=0;orthogonalLoop=1;jettySize=auto;html=1;exitX=0;exitY=0.5;exitDx=0;exitDy=0;fontSize=12;curved=1;entryX=0.5;entryY=1;entryDx=0;entryDy=0;" edge="1" parent="WIyWlLk6GJQsqaUBKTNV-1" source="4k0nX1ey7aPG4yUnOb5Q-46" target="mxMdfdnsyDccVtuDXAn--4">
          <mxGeometry relative="1" as="geometry">
            <mxPoint x="50" y="580" as="targetPoint" />
            <Array as="points">
              <mxPoint x="243" y="640" />
              <mxPoint x="41" y="640" />
            </Array>
          </mxGeometry>
        </mxCell>
        <mxCell id="mxMdfdnsyDccVtuDXAn--17" value="Yes" style="edgeLabel;html=1;align=center;verticalAlign=middle;resizable=0;points=[];fontSize=12;" vertex="1" connectable="0" parent="mxMdfdnsyDccVtuDXAn--16">
          <mxGeometry x="-0.4879" y="3" relative="1" as="geometry">
            <mxPoint x="-33" as="offset" />
          </mxGeometry>
        </mxCell>
        <mxCell id="4k0nX1ey7aPG4yUnOb5Q-46" value="&lt;div&gt;triggerLambda&lt;/div&gt;&lt;div&gt;Exists ?&lt;br&gt;&lt;/div&gt;" style="rhombus;whiteSpace=wrap;html=1;fontSize=12;" parent="WIyWlLk6GJQsqaUBKTNV-1" vertex="1">
          <mxGeometry x="243" y="570" width="129" height="129" as="geometry" />
        </mxCell>
        <mxCell id="4k0nX1ey7aPG4yUnOb5Q-59" value="" style="edgeStyle=orthogonalEdgeStyle;curved=1;rounded=0;orthogonalLoop=1;jettySize=auto;html=1;fontSize=12;entryX=0.5;entryY=0;entryDx=0;entryDy=0;" parent="WIyWlLk6GJQsqaUBKTNV-1" source="4k0nX1ey7aPG4yUnOb5Q-58" target="4k0nX1ey7aPG4yUnOb5Q-46" edge="1">
          <mxGeometry relative="1" as="geometry">
            <Array as="points" />
            <mxPoint x="307.5" y="610.0000000000002" as="targetPoint" />
          </mxGeometry>
        </mxCell>
        <mxCell id="4k0nX1ey7aPG4yUnOb5Q-66" value="" style="edgeStyle=orthogonalEdgeStyle;curved=1;rounded=0;orthogonalLoop=1;jettySize=auto;html=1;fontSize=12;entryX=0;entryY=0.5;entryDx=0;entryDy=0;" parent="WIyWlLk6GJQsqaUBKTNV-1" source="4k0nX1ey7aPG4yUnOb5Q-58" target="4k0nX1ey7aPG4yUnOb5Q-64" edge="1">
          <mxGeometry relative="1" as="geometry">
            <mxPoint x="421.5" y="485" as="targetPoint" />
          </mxGeometry>
        </mxCell>
        <mxCell id="4k0nX1ey7aPG4yUnOb5Q-67" value="jobStatus== &lt;b&gt;&lt;font color=&quot;#990000&quot;&gt;failed &lt;/font&gt;&lt;/b&gt;or &lt;b&gt;&lt;font color=&quot;#4D9900&quot;&gt;completed&lt;/font&gt;&lt;/b&gt;" style="edgeLabel;html=1;align=center;verticalAlign=middle;resizable=0;points=[];fontSize=12;" parent="4k0nX1ey7aPG4yUnOb5Q-66" vertex="1" connectable="0">
          <mxGeometry x="-0.6356" y="4" relative="1" as="geometry">
            <mxPoint x="67" y="-11" as="offset" />
          </mxGeometry>
        </mxCell>
        <mxCell id="4k0nX1ey7aPG4yUnOb5Q-58" value="jobStatus" style="rhombus;whiteSpace=wrap;html=1;fontSize=12;" parent="WIyWlLk6GJQsqaUBKTNV-1" vertex="1">
          <mxGeometry x="267.5" y="440" width="80" height="80" as="geometry" />
        </mxCell>
        <mxCell id="4k0nX1ey7aPG4yUnOb5Q-63" value="jobStatus == &lt;b&gt;&lt;font color=&quot;#666600&quot;&gt;pending&lt;/font&gt;&lt;/b&gt;" style="text;html=1;align=center;verticalAlign=middle;resizable=0;points=[];autosize=1;strokeColor=none;fillColor=none;fontSize=12;" parent="WIyWlLk6GJQsqaUBKTNV-1" vertex="1">
          <mxGeometry x="250" y="535" width="130" height="20" as="geometry" />
        </mxCell>
        <mxCell id="4k0nX1ey7aPG4yUnOb5Q-64" value="Notify&amp;nbsp; User" style="rounded=0;whiteSpace=wrap;html=1;fontSize=12;fillColor=#dae8fc;strokeColor=#6c8ebf;" parent="WIyWlLk6GJQsqaUBKTNV-1" vertex="1">
          <mxGeometry x="597" y="450" width="120" height="60" as="geometry" />
        </mxCell>
        <mxCell id="4k0nX1ey7aPG4yUnOb5Q-70" value="lastTriggeredBy -&amp;nbsp; User ID" style="text;html=1;align=center;verticalAlign=middle;resizable=0;points=[];autosize=1;strokeColor=none;fillColor=none;fontSize=12;" parent="WIyWlLk6GJQsqaUBKTNV-1" vertex="1">
          <mxGeometry x="527" y="240" width="160" height="20" as="geometry" />
        </mxCell>
        <mxCell id="ukAZvJLkasrauwQrZJjI-3" value="" style="edgeStyle=orthogonalEdgeStyle;rounded=0;orthogonalLoop=1;jettySize=auto;html=1;" parent="WIyWlLk6GJQsqaUBKTNV-1" target="4k0nX1ey7aPG4yUnOb5Q-11" edge="1">
          <mxGeometry relative="1" as="geometry">
            <mxPoint x="40" y="75" as="targetPoint" />
            <mxPoint x="-170" y="85" as="sourcePoint" />
          </mxGeometry>
        </mxCell>
        <mxCell id="ukAZvJLkasrauwQrZJjI-5" value="&lt;div&gt;&lt;br&gt;&lt;/div&gt;&lt;div&gt;&lt;div&gt;Post&lt;/div&gt;&lt;div&gt;/api/job&lt;/div&gt;&lt;div&gt;&amp;nbsp; &lt;br&gt;&lt;/div&gt;&lt;/div&gt;&lt;div&gt;&amp;nbsp; &quot;jobType&quot;: &quot;TYPE&quot;,&lt;/div&gt;&amp;nbsp;&amp;nbsp;&amp;nbsp; &quot;triggerLambda&quot;: &quot;LAMBDA TO TRIGGER&quot;,&lt;br&gt;&amp;nbsp;&amp;nbsp;&amp;nbsp; &quot;payload&quot;: OBJECT WITH LAMBDA PARAMS&lt;br&gt;&lt;div&gt;&lt;br&gt;&lt;br&gt;&lt;/div&gt;" style="text;html=1;align=center;verticalAlign=middle;resizable=0;points=[];autosize=1;strokeColor=none;fillColor=none;fontSize=12;" parent="WIyWlLk6GJQsqaUBKTNV-1" vertex="1">
          <mxGeometry x="-155" y="30" width="260" height="130" as="geometry" />
        </mxCell>
        <mxCell id="mxMdfdnsyDccVtuDXAn--2" value="" style="edgeStyle=orthogonalEdgeStyle;rounded=0;orthogonalLoop=1;jettySize=auto;html=1;entryX=0.5;entryY=0;entryDx=0;entryDy=0;exitX=0.5;exitY=1;exitDx=0;exitDy=0;" edge="1" parent="WIyWlLk6GJQsqaUBKTNV-1" source="mxMdfdnsyDccVtuDXAn--1" target="4k0nX1ey7aPG4yUnOb5Q-58">
          <mxGeometry relative="1" as="geometry">
            <mxPoint x="353" y="544" as="sourcePoint" />
          </mxGeometry>
        </mxCell>
        <mxCell id="mxMdfdnsyDccVtuDXAn--1" value="&lt;div&gt;monitorJobTableChanges&lt;/div&gt;&lt;div&gt;Lambda&lt;/div&gt;" style="rounded=1;whiteSpace=wrap;html=1;fontSize=12;fillColor=#fff2cc;strokeColor=#d6b656;" vertex="1" parent="WIyWlLk6GJQsqaUBKTNV-1">
          <mxGeometry x="210" y="350" width="195" height="60" as="geometry" />
        </mxCell>
        <mxCell id="mxMdfdnsyDccVtuDXAn--8" value="" style="group" vertex="1" connectable="0" parent="WIyWlLk6GJQsqaUBKTNV-1">
          <mxGeometry x="-57" y="370" width="195" height="243" as="geometry" />
        </mxCell>
        <mxCell id="mxMdfdnsyDccVtuDXAn--4" value="trigger Relevant job" style="rounded=1;whiteSpace=wrap;html=1;fontSize=12;labelPosition=center;verticalLabelPosition=top;align=center;verticalAlign=bottom;" vertex="1" parent="mxMdfdnsyDccVtuDXAn--8">
          <mxGeometry width="195" height="243" as="geometry" />
        </mxCell>
        <mxCell id="mxMdfdnsyDccVtuDXAn--5" value="inviteEvent Lambda" style="rounded=1;whiteSpace=wrap;html=1;fontSize=12;fillColor=#fff2cc;strokeColor=#d6b656;" vertex="1" parent="mxMdfdnsyDccVtuDXAn--8">
          <mxGeometry x="40" y="20" width="120" height="60" as="geometry" />
        </mxCell>
        <mxCell id="mxMdfdnsyDccVtuDXAn--6" value="someOtherJob" style="rounded=1;whiteSpace=wrap;html=1;fontSize=12;fillColor=#fff2cc;strokeColor=#d6b656;" vertex="1" parent="mxMdfdnsyDccVtuDXAn--8">
          <mxGeometry x="40" y="90" width="120" height="60" as="geometry" />
        </mxCell>
        <mxCell id="mxMdfdnsyDccVtuDXAn--7" value="someOtherJob" style="rounded=1;whiteSpace=wrap;html=1;fontSize=12;fillColor=#fff2cc;strokeColor=#d6b656;" vertex="1" parent="mxMdfdnsyDccVtuDXAn--8">
          <mxGeometry x="40" y="160" width="120" height="60" as="geometry" />
        </mxCell>
        <mxCell id="mxMdfdnsyDccVtuDXAn--12" style="edgeStyle=orthogonalEdgeStyle;curved=1;rounded=0;orthogonalLoop=1;jettySize=auto;html=1;entryX=0;entryY=0.5;entryDx=0;entryDy=0;exitX=0.5;exitY=0;exitDx=0;exitDy=0;" edge="1" parent="WIyWlLk6GJQsqaUBKTNV-1" source="mxMdfdnsyDccVtuDXAn--4" target="4k0nX1ey7aPG4yUnOb5Q-42">
          <mxGeometry relative="1" as="geometry">
            <mxPoint x="-12" y="410" as="sourcePoint" />
            <Array as="points">
              <mxPoint x="40" y="350" />
              <mxPoint x="40" y="310" />
              <mxPoint x="-40" y="310" />
              <mxPoint x="-40" y="260" />
            </Array>
          </mxGeometry>
        </mxCell>
        <mxCell id="mxMdfdnsyDccVtuDXAn--15" value="Update jobStatus = &lt;font style=&quot;font-size: 12px&quot; color=&quot;#4D9900&quot;&gt;&lt;b style=&quot;font-size: 12px&quot;&gt;completed&lt;/b&gt;&lt;/font&gt;" style="text;html=1;align=center;verticalAlign=middle;resizable=0;points=[];autosize=1;strokeColor=none;fillColor=none;fontSize=12;" vertex="1" parent="WIyWlLk6GJQsqaUBKTNV-1">
          <mxGeometry x="130" y="230" width="180" height="20" as="geometry" />
        </mxCell>
      </root>
    </mxGraphModel>
  </diagram>
</mxfile>
